<?xml version="1.0" encoding="utf-8"?>
<!-- Generator: Adobe Illustrator 28.0.0, SVG Export Plug-In . SVG Version: 6.00 Build 0)  -->
<svg version="1.1" id="Слой_1" xmlns="http://www.w3.org/2000/svg" xmlns:xlink="http://www.w3.org/1999/xlink" x="0px" y="0px"
	 viewBox="0 0 400 200" style="enable-background:new 0 0 400 200;" xml:space="preserve">
<style type="text/css">
	.st0{fill:#3853A0;}
	.st1{fill:#7D5CA3;}
	.st2{fill:#486A7D;}
	.st3{fill:#466FB4;}
	.st4{fill:#5657A2;}
</style>
<path class="st0" d="M118.2,158.5c-34.3,0-62-27.8-62-62c0-34.3,27.8-62,62-62c14.9,0,28.5,5.2,39.2,14
	c-12-11.9-28.6-19.2-46.8-19.2c-36.8,0-66.7,29.9-66.7,66.7s29.9,66.7,66.7,66.7c14.3,0,27.5-4.5,38.3-12.1
	C139.9,155.6,129.4,158.5,118.2,158.5z"/>
<path class="st1" d="M249.1,93.2c-6.3-11.4-2.2-25.8,9.2-32.2c7.2-4,15.5-3.8,22.3-0.3c-8.1-5.8-19.1-6.8-28.4-1.6
	c-12.9,7.1-17.5,23.3-10.4,36.2c0.8,1.5,1.8,2.8,2.8,4.1c-1.1,1.3-2.1,2.8-2.9,4.3c-7,12.9-2.2,29.1,10.7,36.1
	c9.3,5.1,20.4,4,28.4-1.9c-6.7,3.6-15.1,3.8-22.3-0.1c-11.5-6.2-15.8-20.6-9.5-32.1c0.3-0.5,0.6-1,0.9-1.5c8.1,5.6,19,6.5,28.1,1.4
	c3-1.7,5.5-3.8,7.6-6.3c0,0,0,0,0,0c0,0,0,0,0,0c0.1-0.1,0.1-0.1,0.2-0.2c-0.1,0.1-0.2,0.1-0.2,0.2c-2.1-2.5-4.7-4.7-7.8-6.4
	c-9.1-5-19.9-4-27.9,1.6C249.6,94.1,249.3,93.6,249.1,93.2z M254,99.3c7.2-6.5,18-8.1,27-3.2c1.7,0.9,3.2,2,4.5,3.2
	c-1.3,1.2-2.7,2.2-4.3,3.1C272.2,107.4,261.3,105.8,254,99.3z"/>
<path class="st2" d="M115,104.2c8,5.6,18.8,6.5,27.9,1.6c3.1-1.7,5.7-3.8,7.8-6.4c0.1,0.1,0.2,0.1,0.2,0.2c-0.1-0.1-0.1-0.1-0.2-0.2
	c0,0,0,0,0,0c0,0,0,0,0,0c-2.1-2.5-4.6-4.6-7.6-6.3c-9.2-5.1-20.1-4.2-28.1,1.4c-0.3-0.5-0.6-1-0.9-1.5c-6.2-11.5-2-25.8,9.5-32.1
	c7.2-3.9,15.5-3.7,22.3-0.1c-8-5.9-19.1-7-28.4-1.9c-12.9,7-17.7,23.2-10.7,36.1c0.8,1.6,1.8,3,2.9,4.3c-1,1.3-2,2.6-2.8,4.1
	c-7.1,12.9-2.5,29.1,10.4,36.2c9.3,5.1,20.3,4.2,28.4-1.6c-6.8,3.5-15.1,3.6-22.3-0.3c-11.4-6.3-15.5-20.7-9.2-32.2
	C114.5,105,114.8,104.6,115,104.2z M146.4,96.3c1.6,0.9,3,1.9,4.3,3.1c-1.3,1.2-2.8,2.3-4.5,3.2c-9,4.9-19.8,3.3-27-3.2
	C126.4,92.8,137.3,91.3,146.4,96.3z"/>
<g>
	<path class="st3" d="M214,103.4c-0.8-1.5-1.8-2.9-2.9-4.2c1.1-1.3,2-2.7,2.8-4.2c7-12.9,2.2-29.1-10.7-36.1
		c-9.3-5.1-20.4-4-28.4,1.9c0.3-0.1,0.6-0.3,0.8-0.4v0l0,0c0,0,0,0,0,0v34c-2.1,1.4-4,3.2-5.5,5.1c0,0-0.1-0.1-0.1-0.1
		c0,0,0.1,0.1,0.1,0.1c0,0-0.1,0.1-0.1,0.1c0,0,0.1-0.1,0.1-0.1c1.6,1.9,3.4,3.5,5.5,5v33.8c0,0,0,0,0,0l0,0v0
		c-0.2-0.1-0.3-0.1-0.5-0.2c8.1,5.8,19.1,6.8,28.4,1.6C216.4,132.5,221.1,116.3,214,103.4z M184.5,58.1c4.2-0.2,8.6,0.6,12.6,2.8
		c11.5,6.2,15.8,20.6,9.5,32.1c-0.3,0.5-0.5,1-0.8,1.4c-6.2-4.2-13.9-5.7-21.3-4C184.5,75.5,184.5,62.1,184.5,58.1z M174.6,102.5
		c-1.6-0.9-3.1-1.9-4.4-3.1c1.3-1.2,2.8-2.2,4.4-3.1c0.4-0.2,0.7-0.4,1.1-0.6c2.8-1.4,5.8-2.2,8.8-2.3c6.3-0.4,12.5,1.7,17.2,5.9
		c-4.7,4.3-10.9,6.4-17.2,6.1c-3-0.2-6-0.9-8.8-2.3C175.3,102.9,174.9,102.7,174.6,102.5z M197.5,137.7c-4.1,2.3-8.6,3.2-13,2.9
		c0-4.4,0-17.6,0-32.3c7.4,1.7,15.2,0.2,21.4-4.2c0.3,0.5,0.6,0.9,0.8,1.4C213,116.9,208.9,131.3,197.5,137.7z"/>
</g>
<path class="st4" d="M340.3,58.9c-7.7-4.1-16.4-4.1-23.8-0.8H309c0,0,0,21.7,0,42.8c-0.7-0.5-1.4-1-2-1.6c0.6,0.7,1.3,1.4,2,2.1
	c0,18.5,0,36.3,0,38.2c4.4,2.9,8.7,3.4,8.7,3.4v-35.9C330.1,112,344.5,107,351,95C358,82.1,353.2,65.9,340.3,58.9z M343.7,93
	c-5.1,9.5-15.9,14.1-25.9,11.8V58.7c5.4-1.2,11.2-0.5,16.4,2.3C345.6,67.2,349.9,81.5,343.7,93z"/>
</svg>
