<?xml version="1.0" encoding="utf-8"?>
<!-- Generator: Adobe Illustrator 28.0.0, SVG Export Plug-In . SVG Version: 6.00 Build 0)  -->
<svg version="1.1" id="Слой_1" xmlns="http://www.w3.org/2000/svg" xmlns:xlink="http://www.w3.org/1999/xlink" x="0px" y="0px"
	 viewBox="0 0 128 128" style="enable-background:new 0 0 128 128;" xml:space="preserve">
<style type="text/css">
	.st0{fill-rule:evenodd;clip-rule:evenodd;fill:#FB0505;}
</style>
<path class="st0" d="M69.8,94.7c0,12.3-9.9,22.2-22.2,22.2c-12.3,0-22.2-9.9-22.2-22.2s9.9-22.2,22.2-22.2
	C59.8,72.5,69.8,82.4,69.8,94.7z M58.7,94.7c0,6.1-5,11.1-11.1,11.1c-6.1,0-11.1-5-11.1-11.1c0-6.1,5-11.1,11.1-11.1
	C53.7,83.6,58.7,88.5,58.7,94.7z"/>
<path class="st0" d="M9.7,72.5h11.1v44.4H9.7V72.5z"/>
<path class="st0" d="M96.8,72c-4.1,0-8,1.1-11.4,3.1v-12h0.4h22.7V52H74.3v42.4v0c0,12.3,10,22.3,22.3,22.3c0,0,0.1,0,0.1,0
	c0,0,0,0,0.1,0c12.3,0,22.3-10,22.3-22.3C119.2,82,109.2,72,96.8,72z M96.8,105.6c-6.2,0-11.2-5-11.2-11.2s5-11.2,11.2-11.2
	c6.2,0,11.2,5,11.2,11.2S103,105.6,96.8,105.6z"/>
</svg>