<svg width="1153" height="94" viewBox="0 0 1153 94" fill="none" xmlns="http://www.w3.org/2000/svg">
<path fill-rule="evenodd" clip-rule="evenodd" d="M51.1044 26.4442C51.1044 32.9774 48.6526 38.9379 44.6188 43.4558C51.5255 48.5554 56.0049 56.7534 56.0049 65.9976C56.0049 81.4629 43.4678 94 28.0024 94C22.902 94 18.12 92.6364 14.0012 90.2538V94H0V65.9976V28.1943H0.059021C0.0198975 27.616 0 27.0324 0 26.4442C0 12.3321 11.4401 0.891968 25.5522 0.891968C39.6643 0.891968 51.1044 12.3321 51.1044 26.4442ZM25.5523 38.0588C31.9669 38.0588 37.1669 32.8588 37.1669 26.4442C37.1669 20.0296 31.9669 14.8296 25.5523 14.8296C19.1377 14.8296 13.9376 20.0296 13.9376 26.4442C13.9376 32.8588 19.1377 38.0588 25.5523 38.0588ZM14.0012 65.9976C14.0012 73.7302 20.2698 79.9988 28.0024 79.9988C35.7351 79.9988 42.0037 73.7302 42.0037 65.9976C42.0037 58.2649 35.7351 51.9963 28.0024 51.9963C20.2698 51.9963 14.0012 58.2649 14.0012 65.9976ZM161.013 94V23.994H207.217V94H224.019V23.994V0.891968H207.217H161.013H143.512V94H161.013ZM266.022 0.891968H283.524V5.95129C288.75 2.86273 294.845 1.09039 301.355 1.09039C320.737 1.09039 336.45 16.8029 336.45 36.1852C336.45 55.5675 320.737 71.28 301.355 71.28C294.845 71.28 288.75 69.5077 283.524 66.4192V94H266.022V0.891968ZM301.355 53.7327C311.046 53.7327 318.902 45.8765 318.902 36.1853C318.902 26.4941 311.046 18.6379 301.355 18.6379C291.664 18.6379 283.807 26.4941 283.807 36.1853C283.807 45.8765 291.664 53.7327 301.355 53.7327ZM499.844 23.994V94.0001H483.042V0.891968H494.943H536.246V23.994H499.844ZM1087.19 0.891968H1068.99V18.3935V77.1986V94H1087.19H1122.9V77.1986H1087.19V58.9969H1111V35.1949H1087.19V18.3935H1122.9V0.891968H1087.19ZM745.565 94H727.587L721.862 77.1986H681.427L675.783 94H658.058L689.337 0.891968H695.861H713.839L745.565 94ZM701.501 17.4445L713.99 54.0966H689.188L701.501 17.4445ZM961.175 70.8981H984.985V70.895L1008.09 36.006V94H1024.89V0.891968H1008.09V0.931091L973 53.2717L937.384 0.891968L937.381 0.892029H919.88V94.0001H937.381V36.6877L961.175 70.8981ZM875.771 0.891968H875.776V94H858.974V32.4565L835.172 77.1876H833.767H818.371H816.965L793.169 32.4666V94.0001H776.367L776.367 0.891968H793.169L826.069 62.7209L858.969 0.891968H858.974H875.771ZM407.527 94.0001C433.201 94.0001 454.013 73.1879 454.013 47.5148C454.013 21.8416 433.201 1.02942 407.527 1.02942C381.854 1.02942 361.042 21.8416 361.042 47.5148C361.042 73.1879 381.854 94.0001 407.527 94.0001ZM407.527 70.7573C420.363 70.7573 430.769 60.3512 430.769 47.5146C430.769 34.6781 420.363 24.272 407.527 24.272C394.69 24.272 384.284 34.6781 384.284 47.5146C384.284 60.3512 394.69 70.7573 407.527 70.7573ZM640.62 35.9868C640.62 55.3691 624.908 71.0817 605.526 71.0817C598.873 71.0817 592.652 69.2305 587.351 66.015V94.0001H569.85V0.89209H587.351V5.9585C592.652 2.74316 598.873 0.891968 605.526 0.891968C624.908 0.891968 640.62 16.6044 640.62 35.9868ZM623.073 35.9869C623.073 45.6781 615.217 53.5343 605.526 53.5343C595.834 53.5343 587.978 45.6781 587.978 35.9869C587.978 26.2957 595.834 18.4395 605.526 18.4395C615.217 18.4395 623.073 26.2957 623.073 35.9869ZM1153 47.0959C1153 51.7355 1149.24 55.4967 1144.6 55.4967C1139.96 55.4967 1136.2 51.7355 1136.2 47.0959C1136.2 42.4563 1139.96 38.6952 1144.6 38.6952C1149.24 38.6952 1153 42.4563 1153 47.0959ZM1153 85.5992C1153 90.2389 1149.24 94 1144.6 94C1139.96 94 1136.2 90.2389 1136.2 85.5992C1136.2 80.9597 1139.96 77.1985 1144.6 77.1985C1149.24 77.1985 1153 80.9597 1153 85.5992Z" fill="#FB0505"/>
</svg>
