<svg width="426" height="716" viewBox="0 0 426 716" fill="none" xmlns="http://www.w3.org/2000/svg">
<path fill-rule="evenodd" clip-rule="evenodd" d="M81.8765 111.717V273.53C107.435 263.661 135.21 258.25 164.25 258.25C290.585 258.25 393 360.665 393 487C393 613.335 290.585 715.75 164.25 715.75C100.172 715.75 42.2475 689.403 0.719116 646.951L61.3816 586.289C87.3814 613.22 123.86 629.969 164.25 629.969C243.209 629.969 307.219 565.96 307.219 487C307.219 408.04 243.209 344.031 164.25 344.031C123.877 344.031 87.4119 360.766 61.4142 387.677L0.751953 327.015L0.766541 327H0.71875V0.125473H58.2061L374.927 0.125427V111.717L81.8765 111.717ZM153.644 227.247H151.836L121.234 169.737V248.868H99.6279V129.132L121.234 129.132L163.543 208.643L205.852 129.132H205.859H227.459H227.466V248.868H205.859V169.724L175.25 227.247H173.443H153.644ZM280.995 129.132C305.793 129.132 325.895 149.235 325.895 174.033L325.896 207.943L325.896 207.943C326.018 217.913 333.94 226.006 343.843 226.402V226.322C351.626 226.227 358.271 221.398 361.03 214.581C345.896 207.362 335.438 191.919 335.438 174.033C335.438 149.235 355.541 129.132 380.339 129.132C388.518 129.132 396.185 131.319 402.79 135.139V129.132H425.24V174.033V248.868H402.79V212.927C397.01 216.27 390.416 218.362 383.378 218.833C378.529 235.935 362.945 248.525 344.37 248.861V248.867L344.235 248.866L344.103 248.865C344.016 248.866 343.93 248.867 343.843 248.867V248.861C332.352 248.653 322.012 243.737 314.669 235.959C307.165 243.907 296.53 248.868 284.736 248.868C262.005 248.868 243.577 230.44 243.577 207.709C243.577 184.977 262.005 166.55 284.736 166.55C291.388 166.55 297.671 168.128 303.232 170.93C301.721 159.999 292.341 151.583 280.995 151.583C275.536 151.583 270.532 153.531 266.641 156.77L250.732 140.862C258.714 133.576 269.336 129.132 280.995 129.132ZM303.445 207.709C303.445 207.787 303.444 207.865 303.443 207.943V207.948C303.315 218.17 294.989 226.417 284.736 226.417C274.404 226.417 266.028 218.041 266.028 207.709C266.028 197.376 274.404 189 284.736 189C295.069 189 303.445 197.376 303.445 207.709ZM357.888 174.033C357.888 186.432 367.939 196.483 380.338 196.483C392.737 196.483 402.789 186.432 402.789 174.033C402.789 161.634 392.737 151.583 380.338 151.583C367.939 151.583 357.888 161.634 357.888 174.033ZM58.9323 466.876C58.9323 474.341 56.1305 481.153 51.521 486.315C59.4134 492.143 64.5321 501.511 64.5321 512.074C64.5321 529.747 50.2057 544.073 32.5331 544.073C26.7049 544.073 21.2406 542.515 16.5341 539.793V544.073H0.534546V512.231C0.534302 512.179 0.53418 512.127 0.53418 512.074C0.53418 512.022 0.534302 511.97 0.534546 511.918V468.876H0.601624C0.556885 468.215 0.53418 467.548 0.53418 466.876C0.53418 450.75 13.6071 437.677 29.7332 437.677C45.8594 437.677 58.9323 450.75 58.9323 466.876ZM29.7332 480.148C37.0632 480.148 43.0054 474.206 43.0054 466.876C43.0054 459.546 37.0632 453.604 29.7332 453.604C22.403 453.604 16.4608 459.546 16.4608 466.876C16.4608 474.206 22.403 480.148 29.7332 480.148ZM16.5341 512.233C16.6189 520.996 23.7493 528.074 32.5328 528.074C41.369 528.074 48.5322 520.911 48.5322 512.075C48.5322 503.238 41.369 496.075 32.5328 496.075C23.7493 496.075 16.6189 503.153 16.5341 511.916V512.233ZM265.055 500.604C277.774 500.604 288.085 490.292 288.085 477.573C288.085 464.854 277.774 454.543 265.055 454.543C252.335 454.543 242.024 464.854 242.024 477.573C242.024 490.292 252.335 500.604 265.055 500.604ZM265.055 489.088C271.414 489.088 276.57 483.933 276.57 477.573C276.57 471.214 271.414 466.058 265.055 466.058C258.695 466.058 253.54 471.214 253.54 477.573C253.54 483.933 258.695 489.088 265.055 489.088ZM243.577 553.604C256.296 553.604 266.607 543.292 266.607 530.573C266.607 517.854 256.296 507.543 243.577 507.543C230.858 507.543 220.547 517.854 220.547 530.573C220.547 543.292 230.858 553.604 243.577 553.604ZM243.577 542.088C249.937 542.088 255.092 536.933 255.092 530.573C255.092 524.214 249.937 519.058 243.577 519.058C237.218 519.058 232.062 524.214 232.062 530.573C232.062 536.933 237.218 542.088 243.577 542.088ZM142.149 544.073H109.149V437.686L104.628 449.011H80.6279L95.7743 411.073H109.149L142.149 411.073V544.073ZM237.024 444.073V443.885V411.073H161.024V444.073H212.949L173.024 544.073H197.024L236.949 444.073H237.024Z" fill="#FB0505"/>
</svg>
