<?xml version="1.0" encoding="UTF-8"?>
<svg id="a" data-name="Слой 1" xmlns="http://www.w3.org/2000/svg" viewBox="0 0 109.45 64.84">
  <defs>
    <style>
      .b {
        fill: #fb0505;
        fill-rule: evenodd;
        stroke-width: 0px;
      }
    </style>
  </defs>
  <path class="b" d="m60.07,42.65c0,12.26-9.94,22.19-22.19,22.19s-22.19-9.94-22.19-22.19,9.94-22.19,22.19-22.19,22.19,9.94,22.19,22.19Zm-11.1,0c0,6.13-4.97,11.1-11.1,11.1s-11.1-4.97-11.1-11.1,4.97-11.1,11.1-11.1,11.1,4.97,11.1,11.1Z"/>
  <path class="b" d="m0,20.45h11.14v44.39H0V20.45Z"/>
  <path class="b" d="m87.11,20.03c-4.14,0-8.02,1.13-11.35,3.09v-11.99h23.17V0h-34.31v64.84h11.14v-3.22c3.33,1.97,7.21,3.09,11.35,3.09,12.34,0,22.34-10,22.34-22.34s-10-22.34-22.34-22.34Zm0,33.51c-6.17,0-11.17-5-11.17-11.17s5-11.17,11.17-11.17,11.17,5,11.17,11.17-5,11.17-11.17,11.17Z"/>
</svg>