<?xml version="1.0" encoding="utf-8"?>
<!-- Generator: Adobe Illustrator 28.0.0, SVG Export Plug-In . SVG Version: 6.00 Build 0)  -->
<svg version="1.1" id="Слой_1" xmlns="http://www.w3.org/2000/svg" xmlns:xlink="http://www.w3.org/1999/xlink" x="0px" y="0px"
	 viewBox="0 0 128 128" style="enable-background:new 0 0 128 128;" xml:space="preserve">
<style type="text/css">
	.st0{fill-rule:evenodd;clip-rule:evenodd;fill:#647CB0;}
	.st1{fill:#647CB0;}
</style>
<path class="st0" d="M59,54.3c-0.9,0-1.8,0.3-2.5,0.8v-0.7h-2v4.4c0,0,0,0,0,0c0,0,0,0,0,0v9h2v-5.3c0.7,0.5,1.6,0.8,2.5,0.8
	c2.5,0,4.5-2,4.5-4.5S61.4,54.3,59,54.3z M59,61.2c-1.4,0-2.5-1.1-2.5-2.5v0c0-1.4,1.1-2.5,2.5-2.5c1.4,0,2.5,1.1,2.5,2.5
	S60.3,61.2,59,61.2z"/>
<path class="st0" d="M69.6,54.3c-2.5,0-4.5,2-4.5,4.5s2,4.5,4.5,4.5s4.5-2,4.5-4.5S72,54.3,69.6,54.3z M69.6,61.2
	c-1.4,0-2.5-1.1-2.5-2.5s1.1-2.5,2.5-2.5c1.4,0,2.5,1.1,2.5,2.5S70.9,61.2,69.6,61.2z"/>
<polygon class="st0" points="81.6,54.3 81.6,57.7 77.7,57.7 77.7,54.3 75.7,54.3 75.7,63.2 77.7,63.2 77.7,59.7 81.6,59.7 
	81.6,63.2 83.6,63.2 83.6,54.3 "/>
<path class="st1" d="M92,46.6c-1.6-1.2-3.9-1.2-6.6-0.1c-0.8-1.5-2-2.8-3.7-3.4c-1.5-0.5-3.3-0.2-5.4,0.7c-0.9-2.3-2.4-3.8-4.2-4.3
	c-1.1-0.3-2.2-0.1-3.3,0.4c-0.9,0.4-1.8,1-2.7,1.9c-1.1-1.3-2.8-2-4.5-1.9c-1.2,0.1-3.2,0.7-4.6,3.7c-1.3-0.3-2.8-0.4-4.1,0.4
	c-0.7,0.5-1.5,1.4-1.8,3c-1.5,0.3-2.7,1.3-3.3,2.6h-4v2h0v7.1c0,0,0,0,0,0s0,0,0,0v4.4h2v-0.7c0.7,0.5,1.6,0.8,2.5,0.8
	c2.5,0,4.5-2,4.5-4.5s-2-4.5-4.5-4.5c-0.9,0-1.8,0.3-2.5,0.8v-3.4h2.7v0h0.9c0-0.1,0-0.1,0-0.2c0.4-3.1,3.5-2.5,3.5-2.5
	c0-2.1,0.6-2.9,1.2-3.3c0.9-0.6,2.2-0.3,3.2,0.1l1,0.4l0.3-1c0.7-2,1.8-3.1,3.2-3.2c1.3-0.1,2.7,0.7,3.3,1.9l0.7,1.3l1-1.1
	c1.3-1.4,3.2-3,4.9-2.5c1,0.3,2.4,1.5,3.1,4l0.3,1.2l1.1-0.6c2-1.1,3.7-1.5,4.9-1.1c0.8,0.3,1.8,0.8,3,3.2l0.5,0.9l0.9-0.4
	c2.3-1.1,4.2-1.3,5.3-0.5c0.7,0.5,0.9,1.4,0.7,2.5l2,0.4C93.8,49.3,93.2,47.6,92,46.6z M48.4,56.3c1.4,0,2.5,1.1,2.5,2.5
	s-1.1,2.5-2.5,2.5c-1.4,0-2.5-1.1-2.5-2.4v-0.1C45.9,57.3,47,56.3,48.4,56.3z"/>
<path class="st1" d="M94.2,58.7v-4.3h-2v0.7c-0.7-0.5-1.6-0.8-2.5-0.8c-2.5,0-4.5,2-4.5,4.5c0,2.1,1.5,3.9,3.5,4.4c0,0,0,0,0,0.1
	c0,1.3-1,2.4-2.3,2.5h-1.2c0,1.5-0.6,2.7-1.6,3.4c-1.4,0.9-3.4,0.9-5.6,0l-1-0.4l-0.3,1.1c-0.7,2.4-2,3.9-3.7,4.3
	c-1.7,0.4-3.7-0.3-5.2-1.7L67,71.6l-0.7,0.7c-1.6,1.7-3.7,2.6-5.4,2.4c-1.5-0.2-2.7-1.3-3.6-3.3l-0.5-1L56,71
	c-1.2,0.7-3,1.5-4.3,0.8c-1.1-0.6-1.6-2.1-1.6-2.9L50,67.2c0,0-1.9,1.9-3.2,1.2c-0.6-0.3-0.9-1.3-0.9-2.2h-2c0,1,0.4,3,1.9,3.9
	c0.8,0.5,1.7,0.5,2.5,0.2c0.3,1.1,1,2.5,2.4,3.2c0.8,0.4,1.7,0.6,2.7,0.5c0.8-0.1,1.7-0.4,2.6-0.8c1.4,2.5,3.3,3.2,4.6,3.5
	c0.3,0,0.6,0.1,0.9,0.1c1,0,2-0.2,3-0.7c0.9-0.4,1.8-1,2.6-1.7c0.8,0.6,1.7,1.1,2.6,1.4c1.3,0.4,2.6,0.5,3.8,0.2
	c1.2-0.3,2.2-0.9,3.1-1.8c0.7-0.8,1.3-1.7,1.8-2.8c1.1,0.3,2.1,0.5,3.1,0.5c1.3,0,2.4-0.4,3.4-1c1.1-0.7,1.9-1.8,2.3-3.2
	c2.1-0.4,3.7-2.2,3.7-4.4c0,0,0-0.1,0-0.1c0.5-0.1,1-0.3,1.5-0.6v5.2h2V59c0-0.1,0-0.1,0-0.2C94.2,58.8,94.2,58.7,94.2,58.7z
	 M92.2,59c-0.1,1.3-1.2,2.4-2.5,2.4c-1.4,0-2.5-1.1-2.5-2.5c0-1.4,1.1-2.5,2.5-2.5c1.3,0,2.4,1,2.5,2.4V59z"/>
</svg>
