<?xml version="1.0" encoding="utf-8"?>

<svg version="1.1" xmlns="http://www.w3.org/2000/svg" xmlns:xlink="http://www.w3.org/1999/xlink" x="0px" y="0px"
	 viewBox="0 0 400 200" style="enable-background:new 0 0 400 200;" xml:space="preserve">
<style type="text/css">
	.st0{fill:#E30614;stroke:#1D1D1B;stroke-linejoin:bevel;stroke-miterlimit:10;}
</style>
<path class="st0" d="M318.2,92.8c5.1-8.7,5.2-9,5.5-9.5c0.3-0.5,0.9-0.9-1.7-1.1s-5-0.3-6-0.7c-1.1-0.3-1.6-0.6-2.3,1.3
	s-14.9,30.7-20.3,29.8c-5.5-0.9,7.6-26.8,7.8-27.3c0.2-0.6,1.2-1.6-1-1.7c-2.2-0.1-10.4-1.3-11.5-1.7c-1.1-0.4-1.8-0.8-2.2,1.1
	c-3,14.9-13.1,30-17.6,29.6c-2.4-0.2,0.5-8,1.3-9.3c0.5-0.9-0.1-2.4-1.2-1.4c-1.2,1-7.1,5.9-7.1,5.9s11.7-23.5,2.3-31.9
	c-7.2-6.4-13.8-3-23.8-10.3c-5.8-4.2-5.2-10.6,4-7.9c5.3,1.6,9.9,12.5,24.8,11.8c8.3-0.4,12.5-7.1,12.8-7.9c0.3-0.8,0.4-1.4-1.4-1.3
	s-6.6-0.9-9.9-4.6c-0.7-0.9-1-0.8-1.4,0.2c-0.4,1.1-2.1,4.7-5.4,3.5c-4.5-1.7-6.3-12-20.4-13s-22.3,10.8-19.7,18.9
	c2.5,8.1,14.4,13.7,22.7,14.7c6.8,0.9,10.1,0.8,10.1,4c-8.7-5.9-21.3,8.1-26.1,24.9C218,120,219.9,115.2,220,113
	c0.4-5.5,10.4-20.6,13.6-24.8c0.6-0.8,1.1-1.4-0.1-1.8c-1.2-0.3-9-2.6-9.9-3c-0.8-0.4-1.1-0.1-1.2,0.4c-0.2,0.6-1.9,3.7-1.9,3.7
	s-3.6-14.3-19.3,4.4c-8.6,10.3-10,16.6-10,16.6s-8.9,8.1-10.8,6.8c-1.8-1.3,4.4-9.8,5.9-11.4c1.5-1.6,12-13.7,7.4-19.1
	c-4.7-5.4-18,4.5-18,4.5s3.4-4.5,3.8-4.9c0.4-0.4,0.4-1-1.3-1s-8.3-0.7-8.9-0.8c-0.6-0.1-0.7,0.1-1.6,1.1s-6.2,10-13.5,12.5
	c1.2-13.5-9.5-16.2-20-9.3c-11.1,7.3-13.4,22.6-13.4,22.6s-8.5,6.9-10.7,4.9c-2.2-2.1,3-8.4,4.4-10.4c1.4-1.9,12.2-15,5.2-22
	c-5.9-5.9-18,0.1-18,0.1s21.6-22.9,26.6-13.9c0.4,0.9,1.2,0.5,1.7-1.5c0.8-3.9,7.3-13.2,14.6-18.1c1.5-1,0.7-1.8-1.7-1.6
	c-2.3,0.2-22.8-2.9-44.3,27.2c0,0-0.2-11.4,11.5-22.4c2.5-3.2-1.7,0.2-6.3-0.6c-4.7-0.8-4.9-1.6-5.8-2c-0.9-0.4-1.6-0.3-1.9,1.2
	c-0.3,1.6-0.6,8.2-17.2,14.1c-15.1,5.3-17.2,11.9-14.9,21.8c6-3.8,10.2-6.7,10.6-7c0.4-0.3-3.5-3.4,2.7-6.1
	c6.2-2.7,9.5-3.9,10.5-4.7c-3.8,11.6-5.5,17.7-5.5,17.7s-7.9,4.8-15.1,12.1c-9.3,9.4-17.5,22.6-6,31.1c5.2,3.4,15.1-0.2,23.4-11.1
	c5.6-7.3,8.1-15.5,9.6-20.2c2.2-1,9.1-5,10.5-3.3s-3.9,8.2-6.3,11.1c-2.4,2.9-10.5,16.1-3.2,21.2c9.5,6.7,21.5-2.1,26.6-7.6
	c1.2,6.9,17.9,15.4,30.6-11.5c3.5-1.4,5.3-2.9,5.3-2.9s-21.2,41.2-21.9,42.4c-0.7,1.2-0.3,2.1,7.5-1.9c4.3-2.2,5.1-2.4,6.6-3.1
	c1-0.5,1.5-0.5,2.1-1.9c1.2-3,17.1-36.6,17.1-36.6s8.3-7.8,11.6-7.8c1.6,0-3.1,5-7.5,11c-4.8,6.5-9.3,14.3-5.3,18.5
	c4.8,4.9,20.4-5.3,22-7.1c-1.7,3.5,4.4,14.1,16.5,2.1c2.3,13.2,20.6,2.8,23.7-1.7c1.4,5.5,6.3,19.2,26.8-2.1
	c2.9,18.8,16.1,8.8,26-5.1c-1.6,10.4,0.6,23.8,18,6.4c0.9,16,17.2,7,24.3-4.3C331.4,104.2,335.9,86,318.2,92.8z M71.8,115.1
	c-5.3-0.9,0.6-10.8,9.6-14.2C81.4,100.9,77.2,116.1,71.8,115.1z M132.6,113.8c-2.9-2.6,2.8-13.1,2.8-13.1s-1.1,6.7,5,7.7
	C140.3,108.4,135.4,116.4,132.6,113.8z M146.1,100.3c0,0-6,0-3.2-5.3C143.8,93,146.5,93,146.1,100.3z M203.9,115.2
	c-1.3,0.6-3-5.1,2-13.3c4.9-8.3,8.9-8,8.9-6C214.7,101.5,208.6,113.2,203.9,115.2z M247,113.1c-2.8,3.1-5.7,3.7-6,3
	c-2.4-4.6,7.5-24.4,12.1-22.9C256.9,94.4,251.8,107.9,247,113.1z M319.9,106.5c-1,4.4-6,6.9-6.7,6.9c-0.9,0-1.6-3.7,1.3-8.7
	C317.2,100.2,321.6,99.6,319.9,106.5z"/>
</svg>
